<svg id="Ebene_1" data-name="Ebene 1" xmlns="http://www.w3.org/2000/svg" viewBox="0 0 256 256"><defs><style>.cls-1{fill:#333;}</style></defs><path class="cls-1" d="M74,194.41a14.42,14.42,0,1,0,14.42,14.42A14.43,14.43,0,0,0,74,194.41ZM74,218a9.14,9.14,0,1,1,9.15-9.14A9.15,9.15,0,0,1,74,218Z"/><path class="cls-1" d="M110,194.41a14.42,14.42,0,1,0,14.41,14.42A14.44,14.44,0,0,0,110,194.41Zm6.46,20.88A9.05,9.05,0,0,1,110,218a9.15,9.15,0,1,1,6.46-2.68Z"/><path class="cls-1" d="M146,223.25a14.42,14.42,0,1,0-14.41-14.42A14.44,14.44,0,0,0,146,223.25Zm0-23.56a9.14,9.14,0,1,1-9.14,9.14A9.16,9.16,0,0,1,146,199.69Z"/><path class="cls-1" d="M182,223.25a14.42,14.42,0,1,0-14.42-14.42A14.44,14.44,0,0,0,182,223.25Zm0-23.56a9.14,9.14,0,1,1-9.14,9.14A9.15,9.15,0,0,1,182,199.69Z"/><path class="cls-1" d="M241.16,97h-.36L240,97,231.89,73.3l.81-.41A24.66,24.66,0,0,0,244.77,43a24.33,24.33,0,0,0-4.8-8.25,8.22,8.22,0,1,0-12.32,10.89,8.15,8.15,0,0,1,1.59,2.72,8.13,8.13,0,1,1-15.38,5.3,8,8,0,0,1-.43-3.12,8.24,8.24,0,0,0-2.06-6,8.23,8.23,0,0,0-14.35,5,24.58,24.58,0,0,0,29,25.62l.89-.17L235,98.66l-.64.46a11.81,11.81,0,0,0-4.52,13.12l.23.74-19.23,13.3-.07-1.91a9.3,9.3,0,0,0-9.31-9h-5l0-1a9.21,9.21,0,0,0-9.19-8.72h-5.14a9.28,9.28,0,0,0-2.59.38l-1.35.4v-2.9a50.29,50.29,0,0,0-46.52-50l-1-.07V41l.79-.2a11.86,11.86,0,1,0-6.78-.3l.71.25V53.49l-1,.07a50.29,50.29,0,0,0-46.52,50v2.89l-1.35-.39a9.28,9.28,0,0,0-2.59-.38H68.79a9.21,9.21,0,0,0-9.19,8.72l-.05,1h-5a9.3,9.3,0,0,0-9.31,9l-.08,1.91L25.94,113l.23-.74a11.81,11.81,0,0,0-4.52-13.12L21,98.66,29.1,75l.9.17a24.84,24.84,0,0,0,4.43.41A24.59,24.59,0,0,0,59,49.55a8.22,8.22,0,0,0-8.2-7.73h-.5a8.24,8.24,0,0,0-7.71,8.69,8.09,8.09,0,0,1-7.63,8.59,8,8,0,0,1-7.79-4.55,8.09,8.09,0,0,1,1.2-8.93A8.23,8.23,0,0,0,22.2,32,8.25,8.25,0,0,0,16,34.74,24.57,24.57,0,0,0,23.3,72.89l.81.42L16,97,15.19,97h-.36a11.84,11.84,0,1,0,7.58,20.94l.61-.52,22.2,15.36V138a9.34,9.34,0,0,0,9.33,9.33h5l.05,1a9.2,9.2,0,0,0,9.19,8.7h2.3c3.45,0,4.07,0,5.44-.38l1.34-.39v5.88l-1,0a9.19,9.19,0,0,0-8.87,9.2V173c0,2.72,0,3.74.59,5.38L69,179.5l-1.19.26A29.72,29.72,0,0,0,74,238.54h45a2.64,2.64,0,1,0,0-5.27H74a24.44,24.44,0,1,1,0-48.88H182a24.44,24.44,0,1,1,0,48.88H136.24a2.64,2.64,0,0,0,0,5.27H182a29.71,29.71,0,0,0,5.52-58.91l-1.2-.23.41-1.15a9.26,9.26,0,0,0,.54-3.08v-3.81a9.2,9.2,0,0,0-8.21-9.16l-.94-.1v-5.88l1.36.4a9,9,0,0,0,2.58.38h5.14a9.21,9.21,0,0,0,9.19-8.7l.06-1h5a9.34,9.34,0,0,0,9.33-9.33v-5.25L233,117.37l.61.52A11.84,11.84,0,1,0,241.16,97ZM221.56,70.3a19.33,19.33,0,0,1-19.28-20.43h0a2.94,2.94,0,1,1,5.88.34,13.21,13.21,0,0,0,5.28,11.47A13.41,13.41,0,0,0,231.6,42.13a2.94,2.94,0,0,1,.26-4.15,2.93,2.93,0,0,1,4.15.26A19.29,19.29,0,0,1,221.56,70.3ZM15.81,55.91A19.19,19.19,0,0,1,20,38.24h0A2.94,2.94,0,0,1,24.14,38a3,3,0,0,1,.26,4.15,13.28,13.28,0,0,0-2.62,4.5A13.4,13.4,0,0,0,34.44,64.41a13.42,13.42,0,0,0,13.4-14.2,2.83,2.83,0,0,1,1.25-2.6,3.16,3.16,0,0,1,3.08-.18,2.81,2.81,0,0,1,1.54,2.44,19.12,19.12,0,0,1-1,7.42,19.29,19.29,0,0,1-36.89-1.38Zm-1,59.44a6.56,6.56,0,1,1,6.57-6.56A6.56,6.56,0,0,1,14.84,115.35ZM59.57,142h-5A4.06,4.06,0,0,1,50.49,138V124.73a4.06,4.06,0,0,1,4.06-4.06h5ZM122,29.3a6.57,6.57,0,1,1,6.56,6.56A6.57,6.57,0,0,1,122,29.3ZM83.15,103.56a44.85,44.85,0,0,1,89.7,0v58.58H83.15Zm-9.22,48.17H68.79a4,4,0,0,1-3.94-3.94V114.9a4,4,0,0,1,3.94-4h5.14a4,4,0,0,1,3.94,4v32.89A4,4,0,0,1,73.93,151.73ZM182,171.35v3.82a3.94,3.94,0,0,1-3.94,3.93H77.21a3.93,3.93,0,0,1-3.94-3.93v-3.82a3.93,3.93,0,0,1,3.94-3.93H178.06A3.94,3.94,0,0,1,182,171.35Zm9.15-23.56a4,4,0,0,1-3.94,3.94h-5.14a4,4,0,0,1-3.94-3.94V114.9a4,4,0,0,1,3.94-4h5.14a4,4,0,0,1,3.94,4ZM205.5,138a4.06,4.06,0,0,1-4.05,4.05h-5V120.67h5a4.06,4.06,0,0,1,4.05,4.06Zm35.66-22.63a6.56,6.56,0,1,1,6.56-6.56A6.57,6.57,0,0,1,241.16,115.35Z"/><path class="cls-1" d="M127.64,99.32a4,4,0,1,0,4,4A4,4,0,0,0,127.64,99.32Z"/><path class="cls-1" d="M127.63,85.1a18.22,18.22,0,1,0,18.22,18.22A18.23,18.23,0,0,0,127.63,85.1Zm0,31.16a12.94,12.94,0,1,1,13-12.94A13,13,0,0,1,127.63,116.26Z"/><path class="cls-1" d="M161,94a34.66,34.66,0,1,0,0,18.63,2.64,2.64,0,1,0-5.08-1.42,29.39,29.39,0,1,1,0-15.79A2.64,2.64,0,1,0,161,94Z"/></svg>